<svg width="40" height="40" viewBox="0 0 40 40" fill="none" xmlns="http://www.w3.org/2000/svg">
<path d="M19.9213 6.84286C19.9213 8.81429 21.4963 9.8 24.6462 9.8C26.1879 9.8 27.2966 9.5619 27.9722 9.08571C28.6574 8.60952 29 7.86667 29 6.85714C29 5.8381 28.6336 5.10952 27.9009 4.67143C27.1681 4.22381 26.0309 4 24.4892 4C22.9476 4 21.8008 4.22381 21.049 4.67143C20.2972 5.10952 19.9213 5.83333 19.9213 6.84286Z" fill="#FF4B24"/>
<path d="M28.4005 13.7143H20.7207V36H21.8199C24.1704 36 25.8881 35.3381 26.973 34.0143C27.9246 32.8524 28.4005 31.119 28.4005 28.8143V13.7143Z" fill="#FF4B24"/>
<path d="M18.5428 13.7538H11V22.035C11 23.0388 11.1091 23.9242 11.3274 24.6913C11.973 27.0587 13.9689 28.2424 17.3152 28.2424H18.5428V13.7538Z" fill="#FF4B24"/>
</svg>
